<?xml version="1.0" encoding="utf-8"?>
<!-- Generator: Adobe Illustrator 22.0.1, SVG Export Plug-In . SVG Version: 6.00 Build 0)  -->
<svg version="1.1" id="Layer_1" xmlns="http://www.w3.org/2000/svg" xmlns:xlink="http://www.w3.org/1999/xlink" x="0px" y="0px"
	 viewBox="0 0 150.1 191.1" style="enable-background:new 0 0 150.1 191.1;" xml:space="preserve">
<style type="text/css">
	.st0{fill:none;stroke:#000000;stroke-width:11;stroke-linecap:square;stroke-linejoin:round;}
</style>
<g>
	<path d="M11.3,50.5C5,50.5,0.2,55.3,0.2,61.6v67.6c0,6.3,4.8,11.1,11.1,11.1l126.7,0c6.3,0,11.1-4.7,11.1-11.1l0-67.6
		c0-6.3-4.8-11.1-11.1-11.1H11.3z"/>
	<g>
		<g>
			<path class="st0" d="M134.4,29.1c-16-14.7-37.3-23.6-60.7-23.6C47.2,5.5,23.4,16.9,7,35.1"/>
			<g>
				<polygon points="132.6,0.4 132.1,26.8 105.7,26.3 116.7,37.7 143.1,38.2 143.6,11.9 				"/>
			</g>
		</g>
	</g>
	<g>
		<g>
			<path class="st0" d="M14.2,162c16,14.7,37.3,23.6,60.7,23.6c26.4,0,50.2-11.4,66.6-29.6"/>
			<g>
				<polygon points="16,190.7 16.5,164.3 42.9,164.8 31.9,153.4 5.6,152.9 5,179.2 				"/>
			</g>
		</g>
	</g>
</g>
</svg>
