<?xml version="1.0" encoding="utf-8"?>
<!-- Generator: Adobe Illustrator 22.0.1, SVG Export Plug-In . SVG Version: 6.00 Build 0)  -->
<svg version="1.1" id="Layer_1" xmlns="http://www.w3.org/2000/svg" xmlns:xlink="http://www.w3.org/1999/xlink" x="0px" y="0px"
	 viewBox="0 0 360.8 345.7" style="enable-background:new 0 0 360.8 345.7;" xml:space="preserve">
<path d="M353,156.7c7.1-6.9,9.6-17.1,6.5-26.5c-3.1-9.5-11.1-16.2-20.9-17.6l-87.4-12.7c-3.7-0.5-6.9-2.9-8.6-6.3l-39.1-79.2
	C199.2,5.5,190.3,0,180.4,0c-9.9,0-18.8,5.5-23.2,14.4l-39.1,79.2c-1.7,3.4-4.9,5.7-8.6,6.3l-87.4,12.7c-9.8,1.4-17.8,8.1-20.9,17.6
	c-3,9.5-0.5,19.6,6.6,26.5l63.2,61.6c2.7,2.6,3.9,6.4,3.3,10.1l-14.9,87c-1.7,9.8,2.3,19.4,10.3,25.3c8,5.8,18.5,6.6,27.2,2
	l78.2-41.1c3.3-1.7,7.3-1.7,10.6,0l78.1,41.1c3.8,2,8,3,12.1,3c5.4,0,10.6-1.7,15.2-5c8-5.9,12-15.5,10.3-25.3l-15-87
	c-0.6-3.7,0.6-7.5,3.3-10.1L353,156.7z"/>
<path d="M229.3,230.9"/>
</svg>
